/vscmnt/brussel_pixiu_data/_data_brussel/112/vsc11236/PredSimResults/SUBJ09opt3D/trackIG/worker_01.mot
version=1
nRows=5
nColumns=50
inDegrees=yes
endheader
                time	         pelvis_tilt	         pelvis_list	     pelvis_rotation	           pelvis_tx	           pelvis_ty	           pelvis_tz	       hip_flexion_r	     hip_adduction_r	      hip_rotation_r	        knee_angle_r	       ankle_angle_r	         mtp_angle_r	       hip_flexion_l	     hip_adduction_l	      hip_rotation_l	        knee_angle_l	       ankle_angle_l	         mtp_angle_l	    lumbar_extension	      lumbar_bending	     lumbar_rotation	 ercspn_r/activation	 intobl_r/activation	 extobl_r/activation	    abd_r/activation	    add_r/activation	hamstrings_r/activation	bifemsh_r/activation	glut_max_r/activation	iliopsoas_r/activation	rect_fem_r/activation	  vasti_r/activation	gastroc_r/activation	 soleus_r/activation	tib_ant_r/activation	 ercspn_l/activation	 intobl_l/activation	 extobl_l/activation	    abd_l/activation	    add_l/activation	hamstrings_l/activation	bifemsh_l/activation	glut_max_l/activation	iliopsoas_l/activation	rect_fem_l/activation	  vasti_l/activation	gastroc_l/activation	 soleus_l/activation	tib_ant_l/activation	
          1.77753443	         -1.54511469	         -0.55419934	          4.01992360	          1.06652066	          1.00715013	         -0.00969164	         20.21079431	         -0.93286086	        -11.47436056	         -0.98294585	          0.09787267	          0.21107626	         -8.04080908	         -2.30496778	        -15.13181697	         -8.69699878	         14.50679960	         13.10498134	        -15.06591288	         -3.25335742	         -4.63609605	          0.01000052	          0.19485239	          0.08229375	          0.01000003	          0.13163862	          0.02262751	          0.08105046	          0.01296255	          0.06708248	          0.05039888	          0.01535433	          0.01680428	          0.01296329	          0.26744933	          0.01000017	          0.01000016	          0.01000030	          0.07496672	          0.01000038	          0.02673119	          0.17446942	          0.03123742	          0.02824576	          0.01000038	          0.01000018	          0.17570462	          0.18500779	          0.01296286	
          1.79530977	         -1.63413790	         -0.52064562	          3.84142712	          1.08156375	          1.00479705	         -0.00783113	         19.45693641	         -0.79629977	        -11.79779324	         -0.93446706	         -0.55315550	          0.20794912	         -8.49212268	         -2.50733902	        -15.64813271	         -9.50727487	         14.65268280	         14.26267069	        -14.64988038	         -2.76039177	         -4.60250125	          0.01000040	          0.19199254	          0.06348578	          0.03668084	          0.10155309	          0.02880428	          0.09816414	          0.01000010	          0.05175101	          0.03888037	          0.01184527	          0.01296377	          0.01000060	          0.30672647	          0.01000212	          0.01000026	          0.01000056	          0.05783336	          0.01296084	          0.03900762	          0.13459584	          0.03655138	          0.02179048	          0.01000033	          0.01000022	          0.17296796	          0.19017534	          0.01000027	
          1.81308511	         -1.71339165	         -0.52573187	          3.61802261	          1.09683624	          1.00300881	         -0.00586136	         18.75740166	         -0.64321264	        -12.32827031	         -0.97678123	         -1.29892613	          0.19026835	         -8.89677940	         -2.76110195	        -16.26870042	        -10.41640940	         14.54626636	         15.52405605	        -14.21441365	         -2.19770141	         -4.55559186	          0.01000077	          0.15383980	          0.04897631	          0.06199811	          0.07918844	          0.04568496	          0.07572940	          0.01577834	          0.03992349	          0.02999440	          0.01905196	          0.01000108	          0.01000014	          0.33618976	          0.01000019	          0.01000008	          0.01000064	          0.04634687	          0.01000036	          0.03940678	          0.10383464	          0.03282431	          0.01681050	          0.01000039	          0.01000027	          0.15896012	          0.18511111	          0.01000013	
          1.83086046	         -1.78495692	         -0.54810140	          3.35078684	          1.11205311	          1.00210752	         -0.00379047	         18.17498253	         -0.50047752	        -12.99061913	         -1.26283498	         -1.87751302	          0.16933188	         -9.17460047	         -3.06058004	        -16.98872525	        -11.52942421	         14.11644131	         16.89613480	        -13.79151145	         -1.59595058	         -4.49564190	          0.01000109	          0.11868016	          0.03778293	          0.08296221	          0.06109075	          0.04911706	          0.05842252	          0.03546834	          0.03079911	          0.02313929	          0.01469986	          0.01000032	          0.01000015	          0.34298477	          0.01020160	          0.01000008	          0.01000025	          0.03575445	          0.01000071	          0.04746139	          0.08010367	          0.02682440	          0.01296890	          0.01000052	          0.01000046	          0.12431031	          0.17154318	          0.01000009	
          1.84863580	         -1.84955109	         -0.58946609	          3.05852359	          1.12701895	          1.00233603	         -0.00163579	         17.69052783	         -0.35242460	        -13.59181964	         -1.75334424	         -2.19183411	          0.14808937	         -9.23026984	         -3.44178232	        -17.76713055	        -12.99704907	         13.33835714	         18.36253051	        -13.39944958	         -0.96027624	         -4.42681072	          0.01000146	          0.09155615	          0.02914777	          0.08572796	          0.04712956	          0.05072330	          0.04507213	          0.06741064	          0.02376009	          0.01785091	          0.01296127	          0.01000111	          0.01000050	          0.32877145	          0.04225436	          0.01000009	          0.01000021	          0.02758289	          0.01059446	          0.06085157	          0.06179632	          0.03188200	          0.01000597	          0.01000052	          0.01000056	          0.09589958	          0.14655885	          0.01000009	
